<svg xmlns:xlink="http://www.w3.org/1999/xlink" xmlns="http://www.w3.org/2000/svg" class="ft-icon ft-facebook" width="24"  height="24" ><defs><symbol viewBox="0 0 24 24" id="icon-facebook" xmlns="http://www.w3.org/2000/svg"><path d="M22.074 12.037C22.074 6.494 17.58 2 12.037 2 6.493 2 2 6.494 2 12.037c0 4.707 3.24 8.656 7.612 9.741v-6.674h-2.07v-3.067h2.07v-1.322c0-3.416 1.546-5 4.9-5 .636 0 1.733.125 2.182.25v2.78a12.859 12.859 0 0 0-1.16-.037c-1.646 0-2.281.623-2.281 2.244v1.085h3.278l-.563 3.067h-2.715V22c4.97-.6 8.82-4.832 8.82-9.963Z"></path></symbol></defs><use xlink:href="#icon-facebook" fill="#FFFFFF"></use></svg>