<svg xmlns:xlink="http://www.w3.org/1999/xlink" xmlns="http://www.w3.org/2000/svg" class="icon icon-awesome-logo-mono" width="100"  height="28" ><defs><symbol viewBox="0 0 100 28" id="icon-awesome-logo-mono" xmlns="http://www.w3.org/2000/svg"><path fill-rule="evenodd" clip-rule="evenodd" d="M15.85 0H9.73S-2.325 22.235 1.121 28l6.685-2.265a6.85 6.85 0 0 1 4.843-2.188v.007h.181v-.005h.089v-.004a6.872 6.872 0 0 1 4.964 2.225L24.453 28c3.446-5.765-8.603-28-8.603-28Zm-2.93 23.545c-.105-2.416.124-4.653.283-6.208.035-.342.066-.651.09-.922.045-.473-.226-.684-.506-.684s-.546.211-.506.684c.024.299.058.644.096 1.03.154 1.55.37 3.742.273 6.102a6.844 6.844 0 0 1 .27-.002Zm2.236-9.134-.89-1.452c.998-4.83-1.43-7.248-1.43-7.248h-.015s-.87.768-1.396 2.393c-.595 1.841-.378 3.456-.211 4.525.015.098.034.207.054.315l-.855 1.462a.773.773 0 0 0-.089.571l.118.542c.433-.187 1.037-.32 1.726-.374l.132.25h.974l.132-.25c.703.049 1.313.182 1.755.374l.094-.561a.79.79 0 0 0-.104-.547h.005Z"></path><path d="M49.493 11.678h1.145v4.264c0 .512-.054 1.005-.167 1.472-.113.478-.31.901-.575 1.27-.27.37-.63.67-1.067.892-.437.221-.973.33-1.602.33-.63 0-1.165-.113-1.603-.33a2.961 2.961 0 0 1-1.239-1.152c-.054.088-.108.177-.172.26-.27.37-.629.67-1.066.892-.438.221-.974.33-1.603.33-.63 0-1.165-.113-1.602-.33a2.961 2.961 0 0 1-1.067-.891 3.446 3.446 0 0 1-.575-1.27 6.254 6.254 0 0 1-.167-1.473v-4.264h1.145v4.043c0 .32.03.67.088 1.039.054.354.167.694.33 1 .157.3.388.546.678.742.29.193.683.291 1.17.291.487 0 .88-.098 1.17-.29.29-.192.521-.444.678-.744.163-.305.276-.64.33-1 .054-.34.078-.664.083-.97v-4.11h1.15v4.11c0 .306.03.63.084.97.054.355.167.695.33 1 .157.3.388.547.678.744.29.192.683.29 1.17.29.486 0 .88-.098 1.17-.29.29-.192.52-.444.678-.744.162-.305.275-.64.33-1a6.54 6.54 0 0 0 .088-1.038v-4.043h.01ZM59.81 13.919c.158.443.242.9.242 1.359v.797h-6.504c.01.192.05.424.118.7.079.315.231.63.448.935.216.3.506.561.87.778.358.212.83.325 1.4.325a3.19 3.19 0 0 0 1.45-.36c.463-.236.822-.566 1.067-.975l.06-.093.884.748-.044.07c-.398.605-.9 1.048-1.49 1.309a4.736 4.736 0 0 1-1.941.394c-.6 0-1.155-.104-1.647-.31a3.716 3.716 0 0 1-2.09-2.196 4.867 4.867 0 0 1-.284-1.69c0-.615.098-1.146.29-1.644a3.9 3.9 0 0 1 .826-1.314c.353-.37.776-.665 1.253-.877a3.94 3.94 0 0 1 1.598-.32c.58 0 1.145.109 1.607.32.462.212.855.498 1.17.847.315.35.556.754.713 1.197h.005Zm-.953 1.063a2.222 2.222 0 0 0-.197-.842 2.444 2.444 0 0 0-.55-.768 2.608 2.608 0 0 0-.826-.527 2.704 2.704 0 0 0-1.012-.192c-.526 0-.969.109-1.318.32a2.89 2.89 0 0 0-.836.749c-.206.28-.354.561-.437.822a3.691 3.691 0 0 0-.118.438h5.3-.006ZM66.329 16.267c.197.28.3.665.3 1.152 0 .384-.074.734-.221 1.044-.148.31-.35.576-.595.788a2.613 2.613 0 0 1-.885.487 3.362 3.362 0 0 1-1.081.168c-.507 0-.994-.089-1.446-.271a2.422 2.422 0 0 1-1.1-.842l-.04-.054.983-.847.044.069c.182.276.418.478.703.61.443.202.915.266 1.406.119a1.6 1.6 0 0 0 .477-.237c.142-.103.26-.236.349-.384a1.01 1.01 0 0 0 .133-.527c0-.28-.084-.487-.26-.635a2.415 2.415 0 0 0-.69-.384c-.284-.108-.589-.212-.918-.305a3.717 3.717 0 0 1-.944-.423 2.369 2.369 0 0 1-.733-.734c-.196-.31-.3-.729-.3-1.246 0-.236.055-.487.153-.753.103-.266.265-.512.487-.729.22-.221.501-.403.84-.551.34-.148.757-.222 1.234-.222.433 0 .85.06 1.244.178.403.123.757.369 1.057.738l.044.054-.973.886-.045-.073a1.364 1.364 0 0 0-.536-.473 1.718 1.718 0 0 0-.791-.177c-.295 0-.521.034-.708.108a1.222 1.222 0 0 0-.442.28 1.014 1.014 0 0 0-.231.365 1.156 1.156 0 0 0-.07.364c0 .31.09.547.261.71.182.167.413.31.689.413.275.108.585.207.919.295.34.089.654.217.944.375.29.162.535.384.732.66l.01.004ZM76.116 15.73a4.174 4.174 0 0 1-4.168 4.176c-2.3 0-4.169-1.871-4.169-4.175a4.174 4.174 0 0 1 4.169-4.176c2.3 0 4.168 1.871 4.168 4.176Zm-1.106 0a3.064 3.064 0 0 0-3.062-3.062 3.064 3.064 0 0 0 0 6.13 3.065 3.065 0 0 0 3.062-3.067ZM78.466 19.788h-1.194v-4.264c0-.512.058-1.005.176-1.472.119-.478.32-.901.6-1.27.28-.37.654-.67 1.106-.892.453-.221 1.013-.33 1.667-.33.654 0 1.214.114 1.666.33.452.222.826.522 1.106.891.064.084.123.173.177.261.054-.088.113-.177.177-.26.28-.37.654-.67 1.106-.892.452-.221 1.013-.33 1.667-.33.653 0 1.214.114 1.666.33.452.222.826.522 1.106.891.28.365.482.793.6 1.27.118.468.177.96.177 1.473v4.264h-1.195v-4.043c0-.32-.03-.67-.088-1.038a3.052 3.052 0 0 0-.344-1 2.085 2.085 0 0 0-.708-.743c-.3-.193-.708-.29-1.22-.29-.51 0-.919.098-1.218.29-.305.192-.541.443-.708.743-.172.305-.285.64-.344 1-.055.34-.084.664-.089.97v4.11h-1.194v-4.11c0-.306-.03-.63-.089-.97a3.055 3.055 0 0 0-.344-1 2.086 2.086 0 0 0-.708-.743c-.3-.193-.708-.29-1.219-.29-.511 0-.92.098-1.22.29-.304.192-.54.443-.707.743a3.13 3.13 0 0 0-.344 1 6.55 6.55 0 0 0-.088 1.038v4.043h.024ZM98.94 13.919c.157.443.24.9.24 1.359v.797h-6.503c.01.192.05.424.118.7.079.315.231.63.448.935.216.3.506.561.87.778.359.212.83.325 1.4.325a3.19 3.19 0 0 0 1.45-.36c.463-.236.822-.566 1.073-.975l.058-.093.885.748-.044.07c-.398.605-.9 1.048-1.49 1.309a4.736 4.736 0 0 1-1.941.394 4.214 4.214 0 0 1-1.647-.31 3.716 3.716 0 0 1-1.273-.872 3.843 3.843 0 0 1-.816-1.324 4.868 4.868 0 0 1-.28-1.69c0-.615.098-1.146.29-1.644.191-.502.472-.945.826-1.314.354-.37.776-.665 1.253-.877a3.94 3.94 0 0 1 1.598-.32c.58 0 1.145.109 1.607.32.462.212.856.498 1.17.847.315.35.556.754.713 1.197h-.005Zm-.954 1.063a2.222 2.222 0 0 0-.196-.842 2.554 2.554 0 0 0-1.376-1.295 2.704 2.704 0 0 0-1.013-.192c-.526 0-.969.109-1.318.32a2.89 2.89 0 0 0-.835.749c-.207.28-.354.561-.438.822a2.882 2.882 0 0 0-.118.438h5.3-.006ZM29.633 17.542a4.061 4.061 0 0 1-.24-1.359v-.797h6.503a3.76 3.76 0 0 0-.118-.7 2.81 2.81 0 0 0-.447-.935 2.853 2.853 0 0 0-.87-.778c-.36-.211-.831-.325-1.402-.325a3.19 3.19 0 0 0-1.45.36 2.643 2.643 0 0 0-1.071.975l-.06.093-.884-.748.044-.069c.398-.606.9-1.049 1.49-1.31a4.737 4.737 0 0 1 1.941-.394c.605 0 1.155.104 1.647.31.492.207.92.498 1.273.872.354.374.63.817.816 1.325.187.507.28 1.073.28 1.688 0 .616-.098 1.148-.29 1.645a3.899 3.899 0 0 1-.826 1.314c-.353.37-.776.665-1.253.877a3.94 3.94 0 0 1-1.598.32c-.58 0-1.145-.109-1.607-.32a3.544 3.544 0 0 1-1.17-.847 3.566 3.566 0 0 1-.713-1.197h.005Zm.954-1.063c.01.295.079.58.196.842a2.553 2.553 0 0 0 1.376 1.295c.32.128.66.192 1.014.192.526 0 .968-.108 1.317-.32.349-.217.634-.468.836-.749.206-.28.353-.56.437-.822a2.89 2.89 0 0 0 .118-.438h-5.3.006Z"></path></symbol></defs><use xlink:href="#icon-awesome-logo-mono" fill-opacity="0.6" fill="#FFFFFF"></use></svg>