<svg xmlns:xlink="http://www.w3.org/1999/xlink" xmlns="http://www.w3.org/2000/svg" class="ft-icon ft-instagram" width="24"  height="24" ><defs><symbol viewBox="0 0 24 24" id="icon-instagram" xmlns="http://www.w3.org/2000/svg"><path d="M7.858 2.07c-1.064.05-1.79.22-2.425.469-.658.256-1.215.6-1.77 1.156a4.902 4.902 0 0 0-1.15 1.773c-.246.637-.413 1.364-.46 2.429-.046 1.066-.057 1.407-.052 4.122.005 2.715.017 3.056.068 4.123.051 1.064.22 1.79.47 2.426.256.657.6 1.214 1.156 1.769a4.903 4.903 0 0 0 1.774 1.15c.636.246 1.363.413 2.428.46 1.066.047 1.407.057 4.122.052 2.716-.005 3.056-.017 4.123-.068 1.064-.05 1.79-.221 2.426-.47a4.902 4.902 0 0 0 1.769-1.156 4.903 4.903 0 0 0 1.15-1.774c.246-.636.413-1.363.46-2.427.046-1.067.057-1.408.052-4.123-.005-2.715-.018-3.056-.068-4.122-.05-1.065-.221-1.79-.47-2.426a4.907 4.907 0 0 0-1.156-1.77 4.895 4.895 0 0 0-1.774-1.149c-.636-.246-1.363-.414-2.427-.46-1.067-.048-1.407-.058-4.123-.053-2.715.005-3.056.017-4.122.068m.116 18.078c-.975-.043-1.504-.205-1.857-.34-.467-.181-.8-.398-1.152-.746a3.108 3.108 0 0 1-.75-1.148c-.137-.353-.302-.882-.347-1.857-.05-1.054-.061-1.37-.066-4.04-.005-2.67.005-2.986.05-4.041.042-.974.205-1.504.34-1.857.182-.468.398-.8.747-1.151.35-.351.682-.568 1.148-.75.353-.138.881-.302 1.856-.348 1.055-.05 1.37-.06 4.04-.066 2.67-.005 2.986.004 4.041.05.975.043 1.505.205 1.857.341.468.18.801.396 1.152.746.35.35.568.681.75 1.149.138.351.301.88.347 1.855.05 1.055.062 1.37.067 4.04.005 2.67-.005 2.987-.051 4.041-.042.975-.204 1.505-.34 1.858-.181.467-.397.8-.746 1.151-.35.35-.682.568-1.149.75-.352.137-.881.301-1.855.348-1.055.05-1.37.06-4.041.065-2.67.006-2.986-.004-4.04-.05m8.151-13.492a1.2 1.2 0 1 0 2.4-.006 1.2 1.2 0 0 0-2.4.005M6.865 12.01a5.135 5.135 0 1 0 10.27-.021 5.135 5.135 0 0 0-10.27.02Zm1.802-.004a3.334 3.334 0 1 1 6.667-.012 3.334 3.334 0 0 1-6.667.012"></path></symbol></defs><use xlink:href="#icon-instagram" fill="#FFFFFF"></use></svg>